# xmcd CD Database Entry
#
# Track frame offsets:
# 150
# 16364
# 33679
# 47611
# 61788
# 81252
# 92099
# 107114
# 127056
# 138453
# 156990
#
# Disc length: 2348 seconds
#
# Revision: 1
# Processed by: cddbd v1.4PL0 Copyright (c) Steve Scherf et al.
# Submitted via: tcd 2.0b
#
DISCID=94092a0b
DTITLE=The Sundays: Static and Silence
DYEAR=1900
DGENRE=
TTITLE0=Summertime
TTITLE1=Homeward
TTITLE2=Folk song
TTITLE3=She
TTITLE4=When I'm thinking about you
TTITLE5=I can't wait
TTITLE6=Another flavour
TTITLE7=leave this city
TTITLE8=Your eyes
TTITLE9=Cry
TTITLE10=Monochrome
EXTD=\n\t\t\t\t
EXTT0=
EXTT1=
EXTT2=
EXTT3=
EXTT4=
EXTT5=
EXTT6=
EXTT7=
EXTT8=
EXTT9=
EXTT10=
PLAYORDER=
